<svg xmlns="http://www.w3.org/2000/svg" viewBox="0 0 533.4 612"><defs><style>.cls-1{fill:#231f20;}</style></defs><g id="Layer_5" data-name="Layer 5"><path class="cls-1" d="M156.94,65.53c8.27,6.37,19.39,5.21,28.43,1.22,9.95-4.38,17.2-12.66,24.88-20.06,7.08-6.83,15-13.2,25.17-14a22.3,22.3,0,0,1,12.13,2c4.25,2.22,6.75,6,7.9,10.63,1.49,6,1.44,12.47,1.88,18.6.48,6.45.94,12.9,1.42,19.35q1.44,19.8,3,39.59c2.13,26.66,4.56,53.3,7.71,79.86q2.32,19.59,5.21,39.11c1.79,12,3.61,24.14,7.43,35.71,6.48,19.67,19.5,35.64,37,46.62,17.07,10.71,37.12,16.41,57.16,17.62,25.44,1.52,50.79-3.51,75.17-10.37,6.3-1.77,12.57-3.68,18.81-5.64,5.22-1.65,10.46-3.61,15.9-4.37,5-.7,10.39-.17,13.9,3.77,2.75,3.08,3.24,7.35,2.89,11.31-.88,9.93-6.78,19-11.85,27.29a253,253,0,0,1-18.3,26.14C446,423.43,410.52,451,370.6,467.18c-21.15,8.57-44.1,13.45-66.89,9.89a121.51,121.51,0,0,1-52.77-22.48,133.81,133.81,0,0,1-38.37-44.15A108.81,108.81,0,0,1,201.2,380a50.81,50.81,0,0,1-.58-17.94c1-6.07,3.53-11.65,6.31-17.09,5.4-10.57,10.19-21,13-32.62a178.56,178.56,0,0,0,4.41-35.07c.92-25.2-1-50.67-3.78-75.7a646.9,646.9,0,0,0-13.31-76.47q-2.19-9.21-4.64-18.35c-1.47-5.47-2.76-11.35-6.74-15.61-6.64-7.12-17.23-6.92-26.1-8.52a12.89,12.89,0,0,1-9.37-18c1.38-2.89-2.93-5.43-4.32-2.52a18.28,18.28,0,0,0,6.3,23c3.94,2.56,8.82,2.74,13.34,3.36s9.58,1.33,13.65,3.78c5,3,6.41,8.44,7.85,13.73q2.67,9.75,5,19.59,4.59,19.24,8,38.75a635.66,635.66,0,0,1,8.68,78.81c1.15,24.38,1.59,49.48-5.18,73.16a105.19,105.19,0,0,1-6.4,17c-2.62,5.44-5.67,10.67-8,16.24-4.93,11.56-5,23.67-2,35.76,5,20,15.85,38.63,29.5,53.93,26.92,30.19,67.11,48.36,107.79,43,23.75-3.14,46.35-12.88,67-24.72a264.93,264.93,0,0,0,92.73-89.46c5.33-8.56,11.13-17.63,13.09-27.66,1.79-9.19-.44-19.28-10-23-10.4-4.05-22.62,1.72-32.52,4.79-12.5,3.86-25.11,7.44-37.93,10.13-23.55,4.95-48.28,6.93-71.89,1.28-19.46-4.65-38.18-14.11-51.78-29a77.65,77.65,0,0,1-16.07-27.63c-4-11.8-5.85-24.19-7.68-36.46-8-53.58-12.13-107.64-16.08-161.63L262,58.6c-.42-5.79-.47-12-2.55-17.45-3.36-8.93-11.81-13.49-21.08-13.61-10-.13-18.69,4.36-26.17,10.66-8.48,7.14-15.37,16.47-25.06,22.09-8.36,4.84-19.4,7.26-27.63.92-2.54-2-5,2.38-2.52,4.32Z"/><path class="cls-1" d="M215.86,62.33c3.22,0,3.23-5,0-5s-3.22,5,0,5Z"/><path class="cls-1" d="M234.44,70.59c3.22,0,3.22-5,0-5s-3.22,5,0,5Z"/><path class="cls-1" d="M298.45,366.33c12.87,10.59,30,12.52,46.14,12,6.86-.21,16.06-1.8,19.82,5.57,3.2,6.28.37,13.46-4.25,18.13a39,39,0,0,1-11.06,7.5,29,29,0,0,1-14.45,3.13c-2.14-.16-3.32,2.85-1.76,4.26a3.71,3.71,0,0,1,.67,4.27c-.81,1.94-2.73,3.22-4.51,4.19a40,40,0,0,1-14.22,4.47c-9.44,1.13-19.26-1.11-26.73-7.15A31.84,31.84,0,0,1,279,411a2.52,2.52,0,0,0-3.42-.9,2.56,2.56,0,0,0-.9,3.42c4.39,9.71,13.4,17,23.55,20A45.17,45.17,0,0,0,332.77,429c2.63-1.68,5-4,5.82-7.13a8.53,8.53,0,0,0-2.17-8.48l-1.77,4.27c9.31.65,18.78-3.73,26-9.37,6.62-5.19,11.13-12.83,9.87-21.43a16,16,0,0,0-5-9.71c-3.43-3-7.88-4-12.33-4.08s-8.64.33-12.95.34a103.64,103.64,0,0,1-12.82-.73c-9.07-1.14-18.24-4-25.38-9.91a2.58,2.58,0,0,0-3.54,0,2.54,2.54,0,0,0,0,3.54Z"/><path class="cls-1" d="M168.47,470.85c-8.13-7.86-17.59-14.11-26.88-20.49-4.64-3.18-9.26-6.41-13.63-10-4.57-3.71-8.88-7.72-13.09-11.81-8.48-8.24-16.77-16.63-25.58-24.51s-17.85-15.3-27.21-22.4q-15.72-11.94-32.49-22.39a2.52,2.52,0,0,0-3.76,2.16C26.38,373.6,31.44,385,38,395.06c6.89,10.68,15.38,20.28,24,29.55q13.29,14.24,27.86,27.18,7.31,6.51,14.92,12.66c2.35,1.9,5.12,4.14,8.31,4.16a5.83,5.83,0,0,0,3.93-1.45,18.19,18.19,0,0,0,2.11-2.69c.69-.86,1.41-.47,2.43.07a48.36,48.36,0,0,1,4.23,2.73q4.29,2.91,8.39,6.11a169.72,169.72,0,0,1,16.14,14.42c2.26,2.3,5.79-1.24,3.53-3.53a165.71,165.71,0,0,0-14-12.74,118.63,118.63,0,0,0-15.38-11.1c-2.66-1.52-6-2.28-8.44.06a20.75,20.75,0,0,0-1.88,2.48c-.58.74-1,.76-2,.41-2.58-.94-4.79-3.23-6.86-4.94q-3.73-3.07-7.39-6.23Q83.24,439.55,69.8,425.59c-8.6-8.94-17.1-18.17-24.3-28.3-7.5-10.54-14.07-22.65-14.67-35.84l-3.76,2.16a426.29,426.29,0,0,1,55.78,41.44c8.81,7.73,17.16,15.91,25.5,24.14,4.24,4.19,8.53,8.33,13.05,12.21s9,7.22,13.71,10.54c10.19,7.15,20.83,13.76,29.82,22.45,2.32,2.24,5.86-1.29,3.54-3.54Z"/><path class="cls-1" d="M349.38,480.74l9.9,36.78c2.72,10.09,4.86,22.32,14.27,28.5,4.75,3.12,10.67,4.05,15.9,1.63l-3-3.93c-4,3.55-9.86,4.36-14.24,7.45a13.26,13.26,0,0,0-5.33,7.13c-1,3.62-.5,7.47-1.2,11.14a29.16,29.16,0,0,1-4.74,11.26l4.66,1.26a109.52,109.52,0,0,0-1.05-12.4c-.47-3.4-.64-8-3.37-10.47-2.47-2.23-5.89-2-9-1.71a14.25,14.25,0,0,1-8.07-1.19,13.07,13.07,0,0,1-6.4-6.8l-1.15,2.83c2.15-1,4.93-.18,7.21-.36a9.46,9.46,0,0,0,6.54-2.93c3-3.41,3.25-8.47,2.74-12.79a164.33,164.33,0,0,0-8.29-34.69,182.73,182.73,0,0,0-7.8-18.82,2.5,2.5,0,0,0-4.32,2.52,173.53,173.53,0,0,1,11.51,31.46q2.1,8.1,3.43,16.39c.57,3.59,1.49,8.27-.28,11.57-1,1.78-2.55,2.33-4.71,2.33-3,0-5.75-.28-8.55,1a2.5,2.5,0,0,0-1.15,2.82,18.32,18.32,0,0,0,7.75,9.27,18.68,18.68,0,0,0,11.54,2.39c1.6-.16,3.57-.55,5.07.06s1.54,3,1.8,4.41A98.19,98.19,0,0,1,360.57,582a2.52,2.52,0,0,0,4.66,1.26,33.32,33.32,0,0,0,4.67-10c1-3.66,1-7.34,1.33-11.1a8.61,8.61,0,0,1,3.35-6.57,33.77,33.77,0,0,1,7.13-3.58,29.28,29.28,0,0,0,8.24-4.74,2.49,2.49,0,0,0,.2-3.29,2.55,2.55,0,0,0-3.23-.64c-3.63,1.68-7.86.38-11-1.73-3.7-2.48-6-6.62-7.54-10.7-1.85-4.93-3-10.11-4.4-15.19l-4.6-17.07-5.18-19.22c-.84-3.11-5.66-1.79-4.82,1.32Z"/><path class="cls-1" d="M239.65,454.7,214,476.8l-12.85,11.05c-3.82,3.29-7.57,6.54-8.69,11.7-1.17,5.37.1,10.89,1.49,16.09l2.41-3.16a5.18,5.18,0,0,1-2.73-1.13,19.7,19.7,0,0,1-2.53-2.55c-1.88-2.19-3.57-4.49-5.9-6.24-3-2.27-6.6-2.46-10.2-3a63.3,63.3,0,0,1-11.82-3A98,98,0,0,1,150.68,491l-.6,4.57c3.68-.76,7.48,0,11.2-.18,4-.23,7.79-1.64,10.11-5.13,4.17-6.26.27-14.19,2.35-20.93l-4.57.59a17.78,17.78,0,0,0,10.31,9.29c5,1.82,10.16.8,14.87-1.4a109.76,109.76,0,0,0,14.26-8.41q6.88-4.61,13.3-9.87a162.45,162.45,0,0,0,13.66-12.57c2.24-2.31-1.29-5.85-3.53-3.54A159.29,159.29,0,0,1,209,463q-6.25,4.38-12.9,8.15c-3.84,2.18-8.13,4.56-12.71,3.85a13.1,13.1,0,0,1-9.91-7.68c-.93-2.09-4-1.28-4.57.6-1,3.37-.84,6.93-.65,10.4.16,2.88.54,6.29-.87,8.8-1.55,2.77-4.67,3.22-7.58,3.23-3.71,0-7.38-.44-11.07.32a2.53,2.53,0,0,0-.59,4.57c7.47,3.9,15.36,7.28,23.69,8.81,3.45.64,7.64.39,10.56,2.61,2,1.52,3.69,4,5.43,6,2.27,2.59,5,4.56,8.49,4.8a2.52,2.52,0,0,0,2.41-3.16c-1.09-4.06-2.27-8.44-1.64-12.67.71-4.68,4.18-7.36,7.56-10.27l24.55-21.12,14-12a2.5,2.5,0,0,0-3.54-3.54Z"/><path class="cls-1" d="M168.08,505.82a66.37,66.37,0,0,0,12.22,11c2.17,1.59,4.41,3.1,6.65,4.59a49.77,49.77,0,0,0,7,4.25,17.09,17.09,0,0,0,15.75-.52c4.65-2.75,7.49-8.37,4.68-13.43-1.49-2.68-3.92-5-5.91-7.26l-6.95-8a2.51,2.51,0,0,0-3.53,0,2.55,2.55,0,0,0,0,3.54c3.53,4.07,7.08,8.13,10.59,12.23,1,1.23,2.25,2.68,1.94,4.41a6.6,6.6,0,0,1-3.18,4.11,12.13,12.13,0,0,1-12,.06,102.12,102.12,0,0,1-12-7.89,62.42,62.42,0,0,1-11.73-10.64,2.53,2.53,0,0,0-3.54,0,2.56,2.56,0,0,0,0,3.54Z"/><path class="cls-1" d="M188.73,64.32l3.13,5.79a32.68,32.68,0,0,1,2.54,5.22c1.26,3.85,0,7.82-1.4,11.46a2.51,2.51,0,0,0,1.74,3.07,2.56,2.56,0,0,0,3.08-1.75c1.66-4.33,2.86-9.1,1.53-13.7a32.44,32.44,0,0,0-2.84-6.2l-3.46-6.41c-1.53-2.84-5.85-.31-4.32,2.52Z"/><path class="cls-1" d="M218.82,47.45,219,54c.05,2.11-.22,4.68,1,6.49a2.5,2.5,0,0,0,4.32-2.52,2,2,0,0,1-.2-.31c.11.3.13.36.07.18s-.2-.46-.15-.63l0,.3a2.43,2.43,0,0,1,0-.38c0-.19,0-.37,0-.56l-.09-3-.16-6.06a2.5,2.5,0,1,0-5,0Z"/><path class="cls-1" d="M230.15,66q7.6.1,15.21-.06a2.5,2.5,0,0,0,0-5q-7.61.16-15.21.06a2.5,2.5,0,1,0,0,5Z"/><path class="cls-1" d="M218.87,59.91a4.79,4.79,0,0,0-.12-1.73A3.58,3.58,0,0,0,217.1,56a3.81,3.81,0,0,0-2.75-.35,3.68,3.68,0,0,0-1.85,1.08,4,4,0,0,0-.64.93,6.68,6.68,0,0,0-.33.82,6,6,0,0,0-.14.93,2.18,2.18,0,0,0,0,.51,5.53,5.53,0,0,0,.18,1.21,4.81,4.81,0,0,0,.44,1.08,4,4,0,0,0,1.2,1.24,2.65,2.65,0,0,0,.92.42,3.14,3.14,0,0,0,1.06.11,4,4,0,0,0,1.62-.45,3.4,3.4,0,0,0,.87-.63,3.48,3.48,0,0,0,1.05-2.52,2.65,2.65,0,0,0-.74-1.76,1.77,1.77,0,0,0-.8-.52,1.88,1.88,0,0,0-1-.22,2.54,2.54,0,0,0-1.77.74,2.48,2.48,0,0,0-.73,1.76.91.91,0,0,1,0,.17l.09-.66a.79.79,0,0,1-.06.22l.25-.6a1.26,1.26,0,0,1-.13.23l.39-.5a1.45,1.45,0,0,1-.22.21l.51-.39a1.69,1.69,0,0,1-.29.17l.59-.25a1.68,1.68,0,0,1-.32.09l.66-.09h-.3l.67.09-.22-.06.59.25a.82.82,0,0,1-.2-.12l.51.39a1.26,1.26,0,0,1-.2-.2l.39.51a1.9,1.9,0,0,1-.2-.37l.25.6a2.65,2.65,0,0,1-.16-.63l.09.66a2.28,2.28,0,0,1,0-.69l-.09.66a1.72,1.72,0,0,1,.13-.48l-.26.6a1.9,1.9,0,0,1,.23-.39l-.39.5a2.5,2.5,0,0,1,.23-.23l-.5.39a1.17,1.17,0,0,1,.31-.17l-.6.25a1.06,1.06,0,0,1,.35-.09l-.67.09a1,1,0,0,1,.35,0l-.66-.09a.72.72,0,0,1,.25.07l-.59-.26a1.42,1.42,0,0,1,.23.14L214.2,60a1,1,0,0,1,.17.18l-.39-.51a1.35,1.35,0,0,1,.15.26l-.26-.6a1.64,1.64,0,0,1,.1.38l-.09-.67a3.45,3.45,0,0,1,0,.85,1.88,1.88,0,0,0,.22,1,1.85,1.85,0,0,0,.52.81,1.83,1.83,0,0,0,.8.51,1.88,1.88,0,0,0,1,.22,2.53,2.53,0,0,0,1.77-.73l.39-.51a2.43,2.43,0,0,0,.34-1.26Z"/><path class="cls-1" d="M232,66.78a4.75,4.75,0,0,0-.4.89,1.54,1.54,0,0,0-.09.37,4.53,4.53,0,0,0-.1,1,4.73,4.73,0,0,0,.14,1,4.17,4.17,0,0,0,.94,1.68,4.63,4.63,0,0,0,.74.6,4.13,4.13,0,0,0,.89.4,1.09,1.09,0,0,0,.3.07,4.09,4.09,0,0,0,1,.1,3.92,3.92,0,0,0,1.86-.53,4.8,4.8,0,0,0,.72-.56,7.05,7.05,0,0,0,.47-.61l.1-.15A3.85,3.85,0,0,0,239,69.2a3.92,3.92,0,0,0-.49-1.87A3.5,3.5,0,0,0,237.16,66a2,2,0,0,0-.93-.3,2.26,2.26,0,0,0-1.85.5,1.8,1.8,0,0,0-.64.7l-.26.59a2.5,2.5,0,0,0,0,1.33l.26.6a2.48,2.48,0,0,0,.89.9,1,1,0,0,1,.17.1l-.5-.39a1.45,1.45,0,0,1,.17.18l-.39-.51a1.35,1.35,0,0,1,.15.26l-.25-.6a1.46,1.46,0,0,1,.1.34L234,69a2,2,0,0,1,0,.35l.09-.66A1.92,1.92,0,0,1,234,69l.25-.6a1.49,1.49,0,0,1-.14.24l.39-.51a1.7,1.7,0,0,1-.19.19l.5-.39a1.1,1.1,0,0,1-.26.15l.6-.25a1.31,1.31,0,0,1-.34.09l.66-.09a1.41,1.41,0,0,1-.41,0l.66.09a1.39,1.39,0,0,1-.35-.09l.6.25a1.64,1.64,0,0,1-.29-.16l.51.39a1.48,1.48,0,0,1-.25-.25l.4.51a1.49,1.49,0,0,1-.18-.3l.25.6a2.17,2.17,0,0,1-.11-.42l.09.66a1.62,1.62,0,0,1,0-.44l-.09.67a2.09,2.09,0,0,1,.11-.43l-.25.6a1.71,1.71,0,0,1,.13-.23,1.85,1.85,0,0,0,.29-.93,2.59,2.59,0,0,0-1.19-2.5l-.6-.25a2.5,2.5,0,0,0-1.33,0l-.59.25a2.59,2.59,0,0,0-.9.9Z"/></g></svg>